# xmcd
#
# Track frame offsets:
#	150
#	12585
#	22507
#	32717
#	44590
#	57172
#	68232
#	78302
#	89345
#	102915
#
# Disc length: 1502 seconds
#
# Revision: 0
# Processed by: cddbd v1.5PL3 Copyright (c) Steve Scherf et al.
# Submitted via: dBpowerAMP V4.0
#
DISCID=7505dc0a
DTITLE=Eddy Arnold - Inducted Into The Hall Of Fame 1966
DYEAR=1900
DGENRE=Country
TTITLE0=Just A Little Lovin' (Will Go A Long Way)
TTITLE1=I Wanna Play House With You
TTITLE2=There's Been A Change In Me
TTITLE3=I'm Throwing Rice (At The Girl That I Love)
TTITLE4=Then You Can Tell Me Goodbye
TTITLE5=It's A Sin
TTITLE6=The Last Word In Lonesome Is Me
TTITLE7=Just Call Me Lonesome
TTITLE8=Molly Darling
TTITLE9=Gonna Find Me A Bluebird
EXTD=
EXTT0=
EXTT1=
EXTT2=
EXTT3=
EXTT4=
EXTT5=
EXTT6=
EXTT7=
EXTT8=
EXTT9=
PLAYORDER=
